<svg width="32" height="32" viewBox="0 0 32 32" xmlns="http://www.w3.org/2000/svg">
  <!-- Fundo escuro -->
  <rect width="32" height="32" fill="#2a2a2a"/>
  
  <!-- Letra X -->
  <path d="M6 8 L12 16 L6 24 L8.5 24 L12.5 18.5 L16.5 24 L19 24 L13 16 L19 8 L16.5 8 L12.5 13.5 L8.5 8 Z" fill="#22c55e"/>
  
  <!-- Letra P -->
  <path d="M21 8 L21 24 L23.5 24 L23.5 17 L26.5 17 C27.9 17 29 15.9 29 14.5 L29 10.5 C29 9.1 27.9 8 26.5 8 Z M23.5 10.5 L26.5 10.5 C26.8 10.5 27 10.7 27 11 L27 14 C27 14.3 26.8 14.5 26.5 14.5 L23.5 14.5 Z" fill="#22c55e"/>
</svg>