<svg width="32" height="32" viewBox="0 0 32 32" xmlns="http://www.w3.org/2000/svg">
  <!-- Fundo preto -->
  <rect width="32" height="32" fill="#000000"/>
  
  <!-- Logo XPe baseado na imagem oficial -->
  <g transform="translate(2, 8) scale(0.8)">
    <!-- Parte principal do X -->
    <path d="M0 0 L8 8 L0 16 L4 16 L8 12 L12 16 L16 16 L8 8 L16 0 L12 0 L8 4 L4 0 Z" fill="#22c55e"/>
    
    <!-- Parte do P -->
    <path d="M18 0 L18 16 L22 16 L22 10 L26 10 C28.2 10 30 8.2 30 6 L30 4 C30 1.8 28.2 0 26 0 Z M22 4 L22 6 L26 6 L26 4 Z" fill="#22c55e"/>
    
    <!-- Círculo do e -->
    <circle cx="34" cy="12" r="3" fill="#22c55e"/>
    <circle cx="34" cy="10" r="1.5" fill="#000000"/>
  </g>
</svg>